<svg width="33" height="33" viewBox="0 0 33 33" fill="none" xmlns="http://www.w3.org/2000/svg">
<g clip-path="url(#clip0_14_1335)">
<path d="M24.2137 23.2458V23.2362C24.2146 23.0143 24.1558 22.7963 24.0436 22.605C23.9313 22.4136 23.7697 22.256 23.5757 22.1485L23.5688 22.1458C20.6521 20.4458 17.3201 19.5903 13.9452 19.6749H13.9658C11.8236 19.6944 9.69021 19.9522 7.60504 20.4435L7.80029 20.405C7.53332 20.4375 7.28961 20.573 7.12111 20.7826C6.95261 20.9922 6.87265 21.2593 6.89829 21.527V21.5229V21.5394C6.89829 21.8213 7.00966 22.077 7.18979 22.2654C7.37129 22.4579 7.62704 22.5775 7.91166 22.5775L7.95429 22.5762C8.26366 22.5294 8.53041 22.4703 8.79304 22.3933L8.74904 22.4043C10.4597 22.0322 12.2042 21.8378 13.9548 21.824H13.9685C16.9912 21.7546 19.9727 22.5354 22.5733 24.0777L22.499 24.0364C22.6998 24.1698 22.9432 24.255 23.2044 24.2729H23.2099C23.4776 24.2729 23.7343 24.1666 23.9236 23.9773C24.1128 23.788 24.2192 23.5313 24.2192 23.2637V23.2403L24.2137 23.2458ZM26.2762 18.6258V18.5818C26.2762 18.0387 25.975 17.5643 25.5309 17.3195L25.524 17.3154C22.2818 15.4083 18.3809 14.2808 14.2174 14.2808C14.0542 14.2808 13.892 14.2826 13.7307 14.2863H13.7554C11.4955 14.2859 9.24684 14.6039 7.07566 15.2309L7.24479 15.1883C6.93347 15.2516 6.65637 15.4274 6.4664 15.682C6.27644 15.9366 6.18691 16.2523 6.21491 16.5688C6.21491 17.2783 6.78966 17.853 7.49916 17.853H7.50466C7.80441 17.8145 8.07391 17.754 8.33379 17.6729L8.30079 17.6825C10.0454 17.2059 11.8465 16.9673 13.655 16.973H13.6922H13.6908C17.4009 16.8828 21.0633 17.8229 24.2714 19.6887L24.1752 19.6364C24.4075 19.7849 24.6853 19.8853 24.9837 19.9155H24.9974C25.338 19.9155 25.6647 19.7802 25.9055 19.5394C26.1464 19.2985 26.2817 18.9719 26.2817 18.6313V18.6258H26.2762ZM28.5999 13.299L28.6013 13.2275C28.6013 12.6102 28.2562 12.0739 27.7488 11.7989L27.7405 11.7948C25.822 10.7047 23.7485 9.91321 21.5915 9.44766L21.4458 9.42153C19.2513 8.91003 16.7309 8.61578 14.1418 8.61578H14.073H14.0772C11.3678 8.57533 8.66711 8.93156 6.06091 9.67316L6.25616 9.62503C5.93309 9.72184 5.64598 9.91228 5.43116 10.1723L5.42841 10.175C5.19595 10.4727 5.07876 10.8443 5.09841 11.2214V11.2173V11.2572C5.09841 11.6765 5.26616 12.0574 5.53979 12.3352C5.80929 12.6143 6.18741 12.7862 6.60541 12.7862H6.64941H6.64666C6.96108 12.7587 7.2567 12.6986 7.53354 12.606L7.50604 12.6143C9.66489 12.0435 11.8927 11.776 14.1253 11.8195H14.106H14.1665C16.5027 11.8195 18.7755 12.0863 20.9577 12.5895L20.7555 12.5497C22.7002 12.9496 24.5695 13.6546 26.294 14.6383L26.2019 14.5902C26.4467 14.7428 26.7423 14.8377 27.0585 14.8473H27.075C27.493 14.8473 27.8712 14.6795 28.1448 14.4073C28.4267 14.1405 28.6027 13.7624 28.6027 13.3444L28.6013 13.2963L28.5999 13.299ZM32.9999 16.5V16.6238C32.9999 19.6309 32.1777 22.4455 30.7449 24.8559L30.7862 24.7817C29.3559 27.2461 27.3143 29.3 24.8585 30.745L24.7815 30.7863C22.4042 32.1778 19.5483 32.9987 16.4985 32.9987C13.4488 32.9987 10.5929 32.1778 8.13716 30.7437L8.21554 30.7863C5.75112 29.356 3.69719 27.3144 2.25216 24.8587L2.21091 24.7817C0.81941 22.4043 -0.00146484 19.5484 -0.00146484 16.4987C-0.00146484 13.4489 0.81941 10.593 2.25354 8.13728L2.21091 8.21566C3.64115 5.75124 5.68276 3.69731 8.13854 2.25228L8.21554 2.21103C10.5929 0.819532 13.4488 -0.00134277 16.4985 -0.00134277C19.5483 -0.00134277 22.4042 0.819532 24.8599 2.25366L24.7815 2.21103C27.246 3.64127 29.2999 5.68288 30.7449 8.13866L30.7862 8.21566C32.2443 10.6864 33.0091 13.5046 32.9999 16.3735V16.5055V16.4987V16.5Z" fill="white"/>
</g>
<defs>
<clipPath id="clip0_14_1335">
<rect width="33" height="33" fill="white"/>
</clipPath>
</defs>
</svg>
