<svg width="48" height="48" viewBox="0 0 48 48" fill="none" xmlns="http://www.w3.org/2000/svg">
<path d="M20 30L30.38 24L20 18V30ZM43.12 14.34C43.38 15.28 43.56 16.54 43.68 18.14C43.82 19.74 43.88 21.12 43.88 22.32L44 24C44 28.38 43.68 31.6 43.12 33.66C42.62 35.46 41.46 36.62 39.66 37.12C38.72 37.38 37 37.56 34.36 37.68C31.76 37.82 29.38 37.88 27.18 37.88L24 38C15.62 38 10.4 37.68 8.34 37.12C6.54 36.62 5.38 35.46 4.88 33.66C4.62 32.72 4.44 31.46 4.32 29.86C4.18 28.26 4.12 26.88 4.12 25.68L4 24C4 19.62 4.32 16.4 4.88 14.34C5.38 12.54 6.54 11.38 8.34 10.88C9.28 10.62 11 10.44 13.64 10.32C16.24 10.18 18.62 10.12 20.82 10.12L24 10C32.38 10 37.6 10.32 39.66 10.88C41.46 11.38 42.62 12.54 43.12 14.34Z" fill="white"/>
</svg>
