<svg width="622" height="547" viewBox="0 0 622 547" fill="none" xmlns="http://www.w3.org/2000/svg">
<path fill-rule="evenodd" clip-rule="evenodd" d="M138.886 109.37C150.734 109.37 162.611 108.537 174.43 109.37C225.771 112.989 261.645 133.388 291.594 144.904C292.252 145.233 293.569 145.891 293.569 145.891L280.404 227.816L279.417 227.816C279.417 227.816 267.898 227.816 263.949 227.816C263.949 224.526 263.949 221.236 263.949 217.946C262.632 171.225 210.632 130.427 175.088 128.453C164.986 128.234 154.893 128.454 144.81 129.111C138.227 129.111 101.696 135.363 89.8478 181.096C89.4088 191.624 89.4088 202.153 89.8478 212.681C93.8983 228.204 98.4939 231.938 105.974 242.293C127.367 271.904 215.898 299.542 241.569 312.044C278.263 329.916 313.645 350.21 319.898 402.853C319.898 411.407 319.898 419.962 319.898 428.516C319.91 434.012 320.369 437.817 319.24 444.967C311.341 494.978 249.468 558.149 144.151 545.317C137.831 544.547 131.429 544.879 125.063 544.988C80.0701 544.988 12.5063 506.164 0 500.242C5.59492 471.288 17.1139 412.065 17.1139 412.065C17.1139 412.065 27.6455 412.065 32.9113 412.065C30.2784 481.159 83.5947 517.351 134.936 528.208C145.468 528.647 156 528.647 166.531 528.208C190.556 523.931 227.746 501.664 227.746 466.682C228.537 456.696 226.759 436.742 226.759 436.742C226.759 436.742 222.48 411.407 188.911 392.324C149.746 372.255 73.3922 339.682 47.3923 319.941C35.6923 311.057 12.8354 288.026 8.55694 253.479C8.70155 248.845 8.48216 244.239 7.89871 239.661C7.79675 231.314 8.01614 222.979 8.55694 214.656C9.87339 184.057 31.2657 150.497 61.215 133.717C89.8478 116.28 130.658 109.37 138.886 109.37Z" fill="white"/>
<path fill-rule="evenodd" clip-rule="evenodd" d="M621.379 120.001C621.379 120.659 621.379 121.977 621.379 121.977L384.939 505.945C384.939 505.945 384.44 509.579 384.939 511.213C423.028 511.981 461.227 512.091 499.537 511.543C550.25 505.945 604.255 458.196 604.255 444.035C609.853 445.353 618.086 447.329 618.086 447.329L601.621 536.241C601.621 536.241 381.207 536.241 271 536.241C271 527.898 271 511.213 271 511.213L495.585 150.297C495.585 150.297 495.585 146.345 495.585 144.369C470.996 144.259 446.408 144.369 421.821 144.698C377.036 147.662 324.676 183.556 315.127 211.547C314.249 211.547 313.37 211.547 312.492 211.547C307.905 210.993 303.295 210.774 298.661 210.889C298.59 207.352 299.32 200.351 299.32 200.351L321.054 121.977C321.054 121.977 518.637 121.977 617.427 121.318C304.804 119.927 313.312 120.001 621.379 120.001Z" fill="white"/>
<path d="M546 27C546 41.9117 436.31 54 301 54C165.69 54 56 41.9117 56 27C56 12.0883 165.69 0 301 0C436.31 0 546 12.0883 546 27ZM123.074 27C123.074 37.8293 202.734 46.6081 301 46.6081C399.266 46.6081 478.926 37.8293 478.926 27C478.926 16.1707 399.266 7.39187 301 7.39187C202.734 7.39187 123.074 16.1707 123.074 27Z" fill="white"/>
</svg>
