<svg width="336" height="322" viewBox="0 0 336 322" fill="none" xmlns="http://www.w3.org/2000/svg">
<path d="M163.81 251.99C163.81 263.197 160.94 274.13 155.2 284.79C149.46 295.45 140.303 304.333 127.73 311.44C115.157 318.273 98.4832 321.69 77.7099 321.69C62.1299 321.69 47.6432 319.913 34.2499 316.36C21.1299 312.533 10.0599 308.297 1.03988 303.65C0.493216 293.263 0.493216 282.467 1.03988 271.26C1.85988 259.78 3.08988 249.53 4.72988 240.51H32.6099L38.3499 277.82C38.6232 280.007 39.1699 281.92 39.9899 283.56C41.0832 285.2 42.5866 286.977 44.4999 288.89C47.7799 292.17 52.4266 295.177 58.4399 297.91C64.7266 300.643 71.6966 302.01 79.3499 302.01C90.8299 302.01 99.5766 299.003 105.59 292.99C111.877 286.977 115.02 278.777 115.02 268.39C115.02 259.643 112.697 252.263 108.05 246.25C103.677 240.237 97.6632 234.907 90.0099 230.26C82.6299 225.613 74.1566 220.967 64.5899 216.32C54.2032 211.127 44.3632 205.66 35.0699 199.92C25.7765 194.18 18.1232 187.073 12.1099 178.6C6.36988 169.853 3.49988 158.92 3.49988 145.8C3.49988 126.94 10.3332 111.223 23.9999 98.65C37.6665 86.0767 58.0299 79.79 85.0899 79.79C96.8432 79.79 108.46 80.8833 119.94 83.07C131.693 85.2567 141.943 88.2633 150.69 92.09C151.51 101.93 151.51 112.043 150.69 122.43C150.143 132.543 149.187 142.247 147.82 151.54H120.35L114.61 118.74C114.063 116.007 113.243 113.683 112.15 111.77C111.33 109.857 109.963 108.217 108.05 106.85C105.043 104.663 101.08 102.887 96.1599 101.52C91.5132 99.88 86.5932 99.06 81.3999 99.06C71.2866 99.06 63.3599 101.793 57.6199 107.26C52.1532 112.727 49.4199 119.97 49.4199 128.99C49.4199 137.19 51.3332 144.023 55.1599 149.49C59.2599 154.957 65.1366 159.877 72.7899 164.25C80.7166 168.623 90.0099 173.543 100.67 179.01C111.877 184.477 122.263 190.49 131.83 197.05C141.397 203.61 149.05 211.4 154.79 220.42C160.803 229.167 163.81 239.69 163.81 251.99Z" fill="white"/>
<path d="M159.13 318L149.29 301.19L280.9 98.65L287.46 104.39H241.95C235.663 104.39 230.06 104.663 225.14 105.21C220.22 105.757 216.257 106.577 213.25 107.67C208.877 109.31 205.87 112.317 204.23 116.69L191.93 157.28H164.87C164.323 144.98 164.46 132.543 165.28 119.97C166.1 107.123 167.467 94.96 169.38 83.48H328.05L335.43 100.7L205.05 303.24L196.03 295.45H256.71C263.27 295.45 268.873 295.177 273.52 294.63C278.44 294.083 282.54 293.263 285.82 292.17C289.92 290.53 292.653 287.387 294.02 282.74L308.37 240.51L334.61 243.79C334.883 250.623 334.747 258.413 334.2 267.16C333.927 275.907 333.243 284.79 332.15 293.81C331.33 302.557 330.237 310.62 328.87 318H159.13Z" fill="white"/>
<path d="M313 32C313 49.6731 247.857 64 167.5 64C87.1424 64 21.9999 49.6731 21.9999 32C21.9999 14.3269 87.1424 0 167.5 0C247.857 0 313 14.3269 313 32ZM61.8339 32C61.8339 44.8347 109.142 55.2393 167.5 55.2393C225.858 55.2393 273.166 44.8347 273.166 32C273.166 19.1653 225.858 8.76074 167.5 8.76074C109.142 8.76074 61.8339 19.1653 61.8339 32Z" fill="white"/>
</svg>
